<svg width="107" height="47" viewBox="0 0 107 47" fill="none" xmlns="http://www.w3.org/2000/svg">
<path d="M40 37C45.5228 37 50 32.5228 50 27C50 21.4772 45.5228 17 40 17C34.4772 17 30 21.4772 30 27C30 32.5228 34.4772 37 40 37Z" fill="#142D40"/>
<path d="M40.0003 36.0572C45.0017 36.0572 49.0562 32.0027 49.0562 27.0012C49.0562 21.9998 45.0017 17.9453 40.0003 17.9453C34.9988 17.9453 30.9443 21.9998 30.9443 27.0012C30.9443 32.0027 34.9988 36.0572 40.0003 36.0572Z" fill="#213955"/>
<path d="M39.9993 35.2798C44.5714 35.2798 48.2778 31.5734 48.2778 27.0012C48.2778 22.4291 44.5714 18.7227 39.9993 18.7227C35.4271 18.7227 31.7207 22.4291 31.7207 27.0012C31.7207 31.5734 35.4271 35.2798 39.9993 35.2798Z" fill="#3F7792"/>
<path d="M39.9992 33.9829C43.8562 33.9829 46.9829 30.8562 46.9829 26.9992C46.9829 23.1423 43.8562 20.0156 39.9992 20.0156C36.1423 20.0156 33.0156 23.1423 33.0156 26.9992C33.0156 30.8562 36.1423 33.9829 39.9992 33.9829Z" fill="#2E4C5C"/>
<path d="M39.9994 33.1747C43.411 33.1747 46.1766 30.4091 46.1766 26.9975C46.1766 23.5859 43.411 20.8203 39.9994 20.8203C36.5879 20.8203 33.8223 23.5859 33.8223 26.9975C33.8223 30.4091 36.5879 33.1747 39.9994 33.1747Z" fill="#2C4450"/>
<path d="M40.0006 32.3704C42.9668 32.3704 45.3714 29.9658 45.3714 26.9997C45.3714 24.0335 42.9668 21.6289 40.0006 21.6289C37.0344 21.6289 34.6299 24.0335 34.6299 26.9997C34.6299 29.9658 37.0344 32.3704 40.0006 32.3704Z" fill="#459E99"/>
<path d="M39.9989 28.5663C40.8651 28.5663 41.5672 27.8641 41.5672 26.998C41.5672 26.1318 40.8651 25.4297 39.9989 25.4297C39.1328 25.4297 38.4307 26.1318 38.4307 26.998C38.4307 27.8641 39.1328 28.5663 39.9989 28.5663Z" fill="#3F7792"/>
<path opacity="0.24" d="M38.7435 27.4225C39.7252 27.4225 40.5211 26.6266 40.5211 25.6448C40.5211 24.6631 39.7252 23.8672 38.7435 23.8672C37.7617 23.8672 36.9658 24.6631 36.9658 25.6448C36.9658 26.6266 37.7617 27.4225 38.7435 27.4225Z" fill="#8FFBF5"/>
<path opacity="0.24" d="M41.4767 29.3793C42.0377 29.3793 42.4925 28.9245 42.4925 28.3635C42.4925 27.8024 42.0377 27.3477 41.4767 27.3477C40.9157 27.3477 40.4609 27.8024 40.4609 28.3635C40.4609 28.9245 40.9157 29.3793 41.4767 29.3793Z" fill="#8FFBF5"/>
<path d="M61 37C66.5228 37 71 32.5228 71 27C71 21.4772 66.5228 17 61 17C55.4772 17 51 21.4772 51 27C51 32.5228 55.4772 37 61 37Z" fill="#142D40"/>
<path d="M61.0003 36.0572C66.0017 36.0572 70.0562 32.0027 70.0562 27.0012C70.0562 21.9998 66.0017 17.9453 61.0003 17.9453C55.9988 17.9453 51.9443 21.9998 51.9443 27.0012C51.9443 32.0027 55.9988 36.0572 61.0003 36.0572Z" fill="#213955"/>
<path d="M60.9993 35.2798C65.5714 35.2798 69.2778 31.5734 69.2778 27.0012C69.2778 22.4291 65.5714 18.7227 60.9993 18.7227C56.4271 18.7227 52.7207 22.4291 52.7207 27.0012C52.7207 31.5734 56.4271 35.2798 60.9993 35.2798Z" fill="#3F7792"/>
<path d="M60.9992 33.9829C64.8562 33.9829 67.9829 30.8562 67.9829 26.9992C67.9829 23.1423 64.8562 20.0156 60.9992 20.0156C57.1423 20.0156 54.0156 23.1423 54.0156 26.9992C54.0156 30.8562 57.1423 33.9829 60.9992 33.9829Z" fill="#2E4C5C"/>
<path d="M60.9994 33.1747C64.411 33.1747 67.1766 30.4091 67.1766 26.9975C67.1766 23.5859 64.411 20.8203 60.9994 20.8203C57.5879 20.8203 54.8223 23.5859 54.8223 26.9975C54.8223 30.4091 57.5879 33.1747 60.9994 33.1747Z" fill="#2C4450"/>
<path d="M61.0006 32.3704C63.9668 32.3704 66.3714 29.9658 66.3714 26.9997C66.3714 24.0335 63.9668 21.6289 61.0006 21.6289C58.0344 21.6289 55.6299 24.0335 55.6299 26.9997C55.6299 29.9658 58.0344 32.3704 61.0006 32.3704Z" fill="#459E99"/>
<path d="M60.9989 28.5663C61.8651 28.5663 62.5672 27.8641 62.5672 26.998C62.5672 26.1318 61.8651 25.4297 60.9989 25.4297C60.1328 25.4297 59.4307 26.1318 59.4307 26.998C59.4307 27.8641 60.1328 28.5663 60.9989 28.5663Z" fill="#3F7792"/>
<path opacity="0.24" d="M59.7435 27.4225C60.7252 27.4225 61.5211 26.6266 61.5211 25.6448C61.5211 24.6631 60.7252 23.8672 59.7435 23.8672C58.7617 23.8672 57.9658 24.6631 57.9658 25.6448C57.9658 26.6266 58.7617 27.4225 59.7435 27.4225Z" fill="#8FFBF5"/>
<path opacity="0.24" d="M62.4767 29.3793C63.0377 29.3793 63.4925 28.9245 63.4925 28.3635C63.4925 27.8024 63.0377 27.3477 62.4767 27.3477C61.9157 27.3477 61.4609 27.8024 61.4609 28.3635C61.4609 28.9245 61.9157 29.3793 62.4767 29.3793Z" fill="#8FFBF5"/>
<path d="M25.1758 8.5625V37H21.3867L7.07031 15.0664V37H3.30078V8.5625H7.07031L21.4453 30.5547V8.5625H25.1758Z" fill="#273C65"/>
<path d="M78.3672 19.1875V37H74.7539V15.8672H78.2695L78.3672 19.1875ZM84.9688 15.75L84.9492 19.1094C84.6497 19.0443 84.3633 19.0052 84.0898 18.9922C83.8294 18.9661 83.5299 18.9531 83.1914 18.9531C82.3581 18.9531 81.6224 19.0833 80.9844 19.3438C80.3464 19.6042 79.806 19.9688 79.3633 20.4375C78.9206 20.9062 78.569 21.4661 78.3086 22.1172C78.0612 22.7552 77.8984 23.4583 77.8203 24.2266L76.8047 24.8125C76.8047 23.5365 76.9284 22.3385 77.1758 21.2188C77.4362 20.099 77.8333 19.1094 78.3672 18.25C78.901 17.3776 79.5781 16.7005 80.3984 16.2188C81.2318 15.724 82.2214 15.4766 83.3672 15.4766C83.6276 15.4766 83.9271 15.5091 84.2656 15.5742C84.6042 15.6263 84.8385 15.6849 84.9688 15.75ZM99.9883 33.3867V22.5078C99.9883 21.6745 99.819 20.9518 99.4805 20.3398C99.1549 19.7148 98.6602 19.2331 97.9961 18.8945C97.332 18.556 96.5117 18.3867 95.5352 18.3867C94.6237 18.3867 93.8229 18.543 93.1328 18.8555C92.4557 19.168 91.9219 19.5781 91.5312 20.0859C91.1536 20.5938 90.9648 21.1406 90.9648 21.7266H87.3516C87.3516 20.9714 87.5469 20.2227 87.9375 19.4805C88.3281 18.7383 88.888 18.0677 89.6172 17.4688C90.3594 16.8568 91.2448 16.375 92.2734 16.0234C93.3151 15.6589 94.474 15.4766 95.75 15.4766C97.2865 15.4766 98.6406 15.737 99.8125 16.2578C100.997 16.7786 101.922 17.5664 102.586 18.6211C103.263 19.6628 103.602 20.9714 103.602 22.5469V32.3906C103.602 33.0938 103.66 33.8424 103.777 34.6367C103.908 35.431 104.096 36.1146 104.344 36.6875V37H100.574C100.392 36.5833 100.249 36.0299 100.145 35.3398C100.04 34.6367 99.9883 33.9857 99.9883 33.3867ZM100.613 24.1875L100.652 26.7266H97C95.9714 26.7266 95.0534 26.8112 94.2461 26.9805C93.4388 27.1367 92.7617 27.3776 92.2148 27.7031C91.668 28.0286 91.2513 28.4388 90.9648 28.9336C90.6784 29.4154 90.5352 29.9818 90.5352 30.6328C90.5352 31.2969 90.6849 31.9023 90.9844 32.4492C91.2839 32.9961 91.7331 33.4323 92.332 33.7578C92.944 34.0703 93.6927 34.2266 94.5781 34.2266C95.6849 34.2266 96.6615 33.9922 97.5078 33.5234C98.3542 33.0547 99.0247 32.4818 99.5195 31.8047C100.027 31.1276 100.301 30.4701 100.34 29.832L101.883 31.5703C101.792 32.1172 101.544 32.7227 101.141 33.3867C100.737 34.0508 100.197 34.6888 99.5195 35.3008C98.8555 35.8997 98.0612 36.401 97.1367 36.8047C96.2253 37.1953 95.1966 37.3906 94.0508 37.3906C92.6185 37.3906 91.362 37.1107 90.2812 36.5508C89.2135 35.9909 88.3802 35.2422 87.7812 34.3047C87.1953 33.3542 86.9023 32.293 86.9023 31.1211C86.9023 29.9883 87.1237 28.9922 87.5664 28.1328C88.0091 27.2604 88.6471 26.5378 89.4805 25.9648C90.3138 25.3789 91.3164 24.9362 92.4883 24.6367C93.6602 24.3372 94.9688 24.1875 96.4141 24.1875H100.613Z" fill="#273C65"/>
</svg>
